{
	"accessors" : 
	[
		{
			"bufferView" : 2,
			"byteOffset" : 0,
			"componentType" : 5126,
			"count" : 26,
			"max" : 
			[
				1,
				1,
				1,
				1
			],
			"min" : 
			[
				1,
				1,
				1,
				1
			],
			"name" : "accessor_color_m0-PolyGem25_-27586",
			"type" : "VEC4"
		},
		{
			"bufferView" : 2,
			"byteOffset" : 416,
			"componentType" : 5126,
			"count" : 2112,
			"max" : 
			[
				1,
				0.835527777671814,
				0.3392233550548553,
				1
			],
			"min" : 
			[
				0.1904628723859787,
				0.09387587010860443,
				0,
				1
			],
			"name" : "accessor_color_m1-PolyPaper16_-27584",
			"type" : "VEC4"
		},
		{
			"bufferView" : 0,
			"byteOffset" : 0,
			"componentType" : 5123,
			"count" : 36,
			"max" : 
			[
				25
			],
			"min" : 
			[
				0
			],
			"name" : "accessor_indices_0_m0-PolyGem25_-27586",
			"type" : "SCALAR"
		},
		{
			"bufferView" : 0,
			"byteOffset" : 72,
			"componentType" : 5123,
			"count" : 2964,
			"max" : 
			[
				2111
			],
			"min" : 
			[
				0
			],
			"name" : "accessor_indices_0_m1-PolyPaper16_-27584",
			"type" : "SCALAR"
		},
		{
			"bufferView" : 1,
			"byteOffset" : 312,
			"componentType" : 5126,
			"count" : 26,
			"max" : 
			[
				0.9457883,
				-0.1905969,
				0.9478193
			],
			"min" : 
			[
				-0.9444852,
				-0.2124247,
				-0.946103
			],
			"name" : "accessor_normal_m0-PolyGem25_-27586",
			"type" : "VEC3"
		},
		{
			"bufferView" : 1,
			"byteOffset" : 25968,
			"componentType" : 5126,
			"count" : 2112,
			"max" : 
			[
				0.9981826,
				1,
				0.9970721
			],
			"min" : 
			[
				-0.9981826,
				-1,
				-0.9970722
			],
			"name" : "accessor_normal_m1-PolyPaper16_-27584",
			"type" : "VEC3"
		},
		{
			"bufferView" : 1,
			"byteOffset" : 0,
			"componentType" : 5126,
			"count" : 26,
			"max" : 
			[
				-0.2964067,
				0.75726,
				0.5916359
			],
			"min" : 
			[
				-0.6268758,
				0.4831048,
				0.261616
			],
			"name" : "accessor_position_m0-PolyGem25_-27586",
			"type" : "VEC3"
		},
		{
			"bufferView" : 1,
			"byteOffset" : 624,
			"componentType" : 5126,
			"count" : 2112,
			"max" : 
			[
				-0.2700295,
				1.040997,
				0.6199993
			],
			"min" : 
			[
				-0.6566833,
				0.290022,
				0.2333455
			],
			"name" : "accessor_position_m1-PolyPaper16_-27584",
			"type" : "VEC3"
		}
	],
	"asset" : 
	{
		"copyright" : "Unknown",
		"generator" : "glTF 1-to-2 Upgrader for Google Blocks",
		"version" : "2.0"
	},
	"bufferViews" : 
	[
		{
			"buffer" : 0,
			"byteLength" : 6000,
			"byteOffset" : 0,
			"name" : "ushortBufferView",
			"target" : 34963
		},
		{
			"buffer" : 0,
			"byteLength" : 51312,
			"byteOffset" : 6000,
			"byteStride" : 12,
			"name" : "vec3BufferView",
			"target" : 34962
		},
		{
			"buffer" : 0,
			"byteLength" : 34208,
			"byteOffset" : 57312,
			"byteStride" : 16,
			"name" : "vec4BufferView",
			"target" : 34962
		}
	],
	"buffers" : 
	[
		{
			"byteLength" : 91520,
			"name" : "model",
			"uri" : "model.bin"
		}
	],
	"materials" : 
	[
		{
			"alphaMode" : "OPAQUE",
			"doubleSided" : false,
			"name" : "BlocksPaper",
			"pbrMetallicRoughness" : 
			{
				"baseColorFactor" : 
				[
					1,
					1,
					1,
					1
				],
				"metallicFactor" : 0,
				"roughnessFactor" : 0.6
			}
		},
		{
			"alphaMode" : "BLEND",
			"doubleSided" : false,
			"name" : "BlocksGlass",
			"pbrMetallicRoughness" : 
			{
				"baseColorFactor" : 
				[
					0.2,
					0.2,
					1,
					0.3
				],
				"metallicFactor" : 1,
				"roughnessFactor" : 0.4
			}
		},
		{
			"alphaMode" : "OPAQUE",
			"doubleSided" : true,
			"name" : "BlocksGem",
			"pbrMetallicRoughness" : 
			{
				"baseColorFactor" : 
				[
					1,
					0.4,
					1,
					1
				],
				"metallicFactor" : 0,
				"roughnessFactor" : 0.1
			}
		}
	],
	"meshes" : 
	[
		{
			"name" : "mesh_m0-PolyGem25_-27586",
			"primitives" : 
			[
				{
					"attributes" : 
					{
						"COLOR_0" : 0,
						"NORMAL" : 4,
						"POSITION" : 6
					},
					"indices" : 2,
					"material" : 2,
					"mode" : 4
				}
			]
		},
		{
			"name" : "mesh_m1-PolyPaper16_-27584",
			"primitives" : 
			[
				{
					"attributes" : 
					{
						"COLOR_0" : 1,
						"NORMAL" : 5,
						"POSITION" : 7
					},
					"indices" : 3,
					"material" : 0,
					"mode" : 4
				}
			]
		}
	],
	"nodes" : 
	[
		{
			"matrix" : 
			[
				1,
				0,
				0,
				0,
				0,
				1,
				0,
				0,
				0,
				0,
				1,
				0,
				0,
				0,
				0,
				1
			],
			"mesh" : 1,
			"name" : "node_MeshObject1001172416-PolyPaper16"
		},
		{
			"matrix" : 
			[
				1,
				0,
				0,
				0,
				0,
				1,
				0,
				0,
				0,
				0,
				1,
				0,
				0,
				0,
				0,
				1
			],
			"mesh" : 0,
			"name" : "node_MeshObject1519892480-PolyGem25"
		}
	],
	"scene" : 0,
	"scenes" : 
	[
		{
			"extras" : {},
			"name" : "defaultScene",
			"nodes" : 
			[
				1,
				0
			]
		}
	]
}