{
  "accessors": [
    {
      "bufferView": 2,
      "componentType": 5126,
      "count": 65532,
      "max": [
        65.388252258300781,
        63.337547302246094,
        73.842391967773438
      ],
      "min": [
        -50.255893707275391,
        -32.179981231689453,
        -68.38427734375
      ],
      "type": "VEC3"
    },
    {
      "bufferView": 2,
      "byteOffset": 786384,
      "componentType": 5126,
      "count": 65532,
      "max": [
        1,
        0.99999994039535522,
        0.99992364645004272
      ],
      "min": [
        -1,
        -0.99999994039535522,
        -0.99982482194900513
      ],
      "type": "VEC3"
    },
    {
      "bufferView": 1,
      "componentType": 5126,
      "count": 65532,
      "max": [
        0.97838902473449707,
        0.53422600030899048
      ],
      "min": [
        0.090029999613761902,
        0.0084690004587173462
      ],
      "type": "VEC2"
    },
    {
      "bufferView": 0,
      "componentType": 5125,
      "count": 382137,
      "max": [
        65531
      ],
      "min": [
        0
      ],
      "type": "SCALAR"
    },
    {
      "bufferView": 2,
      "byteOffset": 1572768,
      "componentType": 5126,
      "count": 65532,
      "max": [
        62.222404479980469,
        65.736671447753906,
        70.805946350097656
      ],
      "min": [
        -65.959953308105469,
        -32.179981231689453,
        -70.583099365234375
      ],
      "type": "VEC3"
    },
    {
      "bufferView": 2,
      "byteOffset": 2359152,
      "componentType": 5126,
      "count": 65532,
      "max": [
        0.97953981161117554,
        0.99895000457763672,
        0.99404525756835938
      ],
      "min": [
        -1,
        -1,
        -0.99995321035385132
      ],
      "type": "VEC3"
    },
    {
      "bufferView": 1,
      "byteOffset": 524256,
      "componentType": 5126,
      "count": 65532,
      "max": [
        0.79088598489761353,
        0.7693449854850769
      ],
      "min": [
        0.22098200023174286,
        0.013663999736309052
      ],
      "type": "VEC2"
    },
    {
      "bufferView": 0,
      "byteOffset": 1528548,
      "componentType": 5125,
      "count": 373791,
      "max": [
        65531
      ],
      "min": [
        0
      ],
      "type": "SCALAR"
    },
    {
      "bufferView": 2,
      "byteOffset": 3145536,
      "componentType": 5126,
      "count": 65532,
      "max": [
        62.222404479980469,
        65.745933532714844,
        48.554374694824219
      ],
      "min": [
        -64.783920288085938,
        -26.027996063232422,
        -70.456733703613281
      ],
      "type": "VEC3"
    },
    {
      "bufferView": 2,
      "byteOffset": 3931920,
      "componentType": 5126,
      "count": 65532,
      "max": [
        0.97997909784317017,
        0.99999415874481201,
        0.99915462732315063
      ],
      "min": [
        -0.99618738889694214,
        -0.99997514486312866,
        -0.99998569488525391
      ],
      "type": "VEC3"
    },
    {
      "bufferView": 1,
      "byteOffset": 1048512,
      "componentType": 5126,
      "count": 65532,
      "max": [
        0.6106569766998291,
        0.99925601482391357
      ],
      "min": [
        0.047024000436067581,
        0.21374499797821045
      ],
      "type": "VEC2"
    },
    {
      "bufferView": 0,
      "byteOffset": 3023712,
      "componentType": 5125,
      "count": 354663,
      "max": [
        65531
      ],
      "min": [
        0
      ],
      "type": "SCALAR"
    },
    {
      "bufferView": 2,
      "byteOffset": 4718304,
      "componentType": 5126,
      "count": 65532,
      "max": [
        65.388252258300781,
        41.479850769042969,
        58.447620391845703
      ],
      "min": [
        -63.634891510009766,
        -30.423370361328125,
        -70.576705932617188
      ],
      "type": "VEC3"
    },
    {
      "bufferView": 2,
      "byteOffset": 5504688,
      "componentType": 5126,
      "count": 65532,
      "max": [
        0.99993342161178589,
        0.9999350905418396,
        0.99479800462722778
      ],
      "min": [
        -0.99920189380645752,
        -1,
        -0.9999963641166687
      ],
      "type": "VEC3"
    },
    {
      "bufferView": 1,
      "byteOffset": 1572768,
      "componentType": 5126,
      "count": 65532,
      "max": [
        0.99466997385025024,
        0.99925601482391357
      ],
      "min": [
        0.00074400001903995872,
        0.49179399013519287
      ],
      "type": "VEC2"
    },
    {
      "bufferView": 0,
      "byteOffset": 4442364,
      "componentType": 5125,
      "count": 335166,
      "max": [
        65531
      ],
      "min": [
        0
      ],
      "type": "SCALAR"
    },
    {
      "bufferView": 2,
      "byteOffset": 6291072,
      "componentType": 5126,
      "count": 14834,
      "max": [
        64.059326171875,
        65.708038330078125,
        49.447620391845703
      ],
      "min": [
        -64.377601623535156,
        -30.320148468017578,
        -70.352378845214844
      ],
      "type": "VEC3"
    },
    {
      "bufferView": 2,
      "byteOffset": 6469080,
      "componentType": 5126,
      "count": 14834,
      "max": [
        1,
        0.99518901109695435,
        0.96290051937103271
      ],
      "min": [
        -0.99154436588287354,
        -1,
        -0.99954319000244141
      ],
      "type": "VEC3"
    },
    {
      "bufferView": 1,
      "byteOffset": 2097024,
      "componentType": 5126,
      "count": 14834,
      "max": [
        0.99074101448059082,
        0.99925601482391357
      ],
      "min": [
        0.22224199771881104,
        0.21519200503826141
      ],
      "type": "VEC2"
    },
    {
      "bufferView": 0,
      "byteOffset": 5783028,
      "componentType": 5125,
      "count": 54243,
      "max": [
        14833
      ],
      "min": [
        0
      ],
      "type": "SCALAR"
    }
  ],
  "asset": {
    "extras": {
      "author": "Amitabha Buddhist New Zealand (https://sketchfab.com/AmitabhaNZ)",
      "license": "CC-BY-4.0 (http://creativecommons.org/licenses/by/4.0/)",
      "source": "https://sketchfab.com/3d-models/maitreya-bodhisattva-dd03a47798124527af5d124a294a5a1b",
      "title": "Maitreya Bodhisattva"
    },
    "generator": "Sketchfab-10.13.0",
    "version": "2.0"
  },
  "bufferViews": [
    {
      "buffer": 0,
      "byteLength": 6000000,
      "byteOffset": 0,
      "name": "floatBufferViews",
      "target": 34963
    },
    {
      "buffer": 0,
      "byteLength": 2215696,
      "byteOffset": 6000000,
      "byteStride": 8,
      "name": "floatBufferViews",
      "target": 34962
    },
    {
      "buffer": 0,
      "byteLength": 6647088,
      "byteOffset": 8215696,
      "byteStride": 12,
      "name": "floatBufferViews",
      "target": 34962
    }
  ],
  "buffers": [
    {
      "byteLength": 14862784,
      "uri": "scene.bin"
    }
  ],
  "images": [
    {
      "uri": "textures/material_0_baseColor.jpeg"
    }
  ],
  "materials": [
    {
      "doubleSided": true,
      "emissiveFactor": [
        0,
        0,
        0
      ],
      "name": "material_0",
      "pbrMetallicRoughness": {
        "baseColorFactor": [
          1,
          1,
          1,
          1
        ],
        "baseColorTexture": {
          "index": 0,
          "texCoord": 0
        },
        "metallicFactor": 0,
        "roughnessFactor": 0.43765867480965093
      }
    }
  ],
  "meshes": [
    {
      "primitives": [
        {
          "attributes": {
            "NORMAL": 1,
            "POSITION": 0,
            "TEXCOORD_0": 2
          },
          "indices": 3,
          "material": 0,
          "mode": 4
        }
      ]
    },
    {
      "primitives": [
        {
          "attributes": {
            "NORMAL": 5,
            "POSITION": 4,
            "TEXCOORD_0": 6
          },
          "indices": 7,
          "material": 0,
          "mode": 4
        }
      ]
    },
    {
      "primitives": [
        {
          "attributes": {
            "NORMAL": 9,
            "POSITION": 8,
            "TEXCOORD_0": 10
          },
          "indices": 11,
          "material": 0,
          "mode": 4
        }
      ]
    },
    {
      "primitives": [
        {
          "attributes": {
            "NORMAL": 13,
            "POSITION": 12,
            "TEXCOORD_0": 14
          },
          "indices": 15,
          "material": 0,
          "mode": 4
        }
      ]
    },
    {
      "primitives": [
        {
          "attributes": {
            "NORMAL": 17,
            "POSITION": 16,
            "TEXCOORD_0": 18
          },
          "indices": 19,
          "material": 0,
          "mode": 4
        }
      ]
    }
  ],
  "nodes": [
    {
      "children": [
        1
      ],
      "name": "RootNode (gltf orientation matrix)",
      "rotation": [
        -0.70710678118654746,
        -0,
        -0,
        0.70710678118654757
      ]
    },
    {
      "children": [
        2
      ],
      "matrix": [
        0.99944972991943359,
        -1.7347234759768071e-18,
        0.033169183880090714,
        0,
        0.016337227076292038,
        0.87028849124908447,
        -0.49227133393287659,
        0,
        -0.028866756707429886,
        0.49254235625267029,
        0.86980956792831421,
        0,
        -0.22730304300785065,
        1.3743035793304443,
        8.4833812713623047,
        1
      ],
      "name": "RootNode (model correction matrix)"
    },
    {
      "children": [
        3,
        4,
        5,
        6,
        7
      ],
      "name": "Laughing Sitting Buddha.obj.cleaner.materialmerger.gles"
    },
    {
      "mesh": 0,
      "name": ""
    },
    {
      "mesh": 1,
      "name": ""
    },
    {
      "mesh": 2,
      "name": ""
    },
    {
      "mesh": 3,
      "name": ""
    },
    {
      "mesh": 4,
      "name": ""
    }
  ],
  "samplers": [
    {
      "magFilter": 9729,
      "minFilter": 9987,
      "wrapS": 10497,
      "wrapT": 10497
    }
  ],
  "scene": 0,
  "scenes": [
    {
      "name": "OSG_Scene",
      "nodes": [
        0
      ]
    }
  ],
  "textures": [
    {
      "sampler": 0,
      "source": 0
    }
  ]
}

